<?xml version="1.0" encoding="UTF-8" standalone="no"?><svg xmlns="http://www.w3.org/2000/svg" xmlns:xlink="http://www.w3.org/1999/xlink" contentScriptType="application/ecmascript" contentStyleType="text/css" height="355px" preserveAspectRatio="none" style="width:641px;height:355px;" version="1.1" viewBox="0 0 641 355" width="641px" zoomAndPan="magnify"><defs><filter height="300%" id="f1rau8hl57l5rp" width="300%" x="-1" y="-1"><feGaussianBlur result="blurOut" stdDeviation="2.0"/><feColorMatrix in="blurOut" result="blurOut2" type="matrix" values="0 0 0 0 0 0 0 0 0 0 0 0 0 0 0 0 0 0 .4 0"/><feOffset dx="4.0" dy="4.0" in="blurOut2" result="blurOut3"/><feBlend in="SourceGraphic" in2="blurOut3" mode="normal"/></filter></defs><g><text fill="#000000" font-family="sans-serif" font-size="18" lengthAdjust="spacingAndGlyphs" textLength="262" x="193" y="16.708">TD2 - Exercice 2 - Question 1</text><!--MD5=[055152d953874a35b1ac9c9adaefcda9]
class Connectable--><rect fill="#FEFECE" filter="url(#f1rau8hl57l5rp)" height="60.8047" id="Connectable" style="stroke: #A80036; stroke-width: 1.5;" width="111" x="279.5" y="283.9531"/><ellipse cx="294.5" cy="299.9531" fill="#B4A7E5" rx="11" ry="11" style="stroke: #A80036; stroke-width: 1.0;"/><path d="M290.4219,295.7188 L290.4219,293.5625 L297.8125,293.5625 L297.8125,295.7188 L295.3438,295.7188 L295.3438,303.7969 L297.8125,303.7969 L297.8125,305.9531 L290.4219,305.9531 L290.4219,303.7969 L292.8906,303.7969 L292.8906,295.7188 L290.4219,295.7188 Z "/><text fill="#000000" font-family="sans-serif" font-size="12" font-style="italic" lengthAdjust="spacingAndGlyphs" textLength="79" x="308.5" y="304.1074">Connectable</text><line style="stroke: #A80036; stroke-width: 1.5;" x1="280.5" x2="389.5" y1="315.9531" y2="315.9531"/><line style="stroke: #A80036; stroke-width: 1.5;" x1="280.5" x2="389.5" y1="323.9531" y2="323.9531"/><ellipse cx="290.5" cy="334.9531" fill="#84BE84" rx="3" ry="3" style="stroke: #038048; stroke-width: 1.0;"/><text fill="#000000" font-family="sans-serif" font-size="11" lengthAdjust="spacingAndGlyphs" textLength="84" x="299.5" y="338.1636">equiper(string)</text><!--MD5=[16759f3cb9cbee5c0bcd0f1a298fb893]
class ConnectableFactory--><rect fill="#FEFECE" filter="url(#f1rau8hl57l5rp)" height="73.6094" id="ConnectableFactory" style="stroke: #A80036; stroke-width: 1.5;" width="185" x="151.5" y="149.9531"/><ellipse cx="179.1" cy="165.9531" fill="#B4A7E5" rx="11" ry="11" style="stroke: #A80036; stroke-width: 1.0;"/><path d="M175.0219,161.7188 L175.0219,159.5625 L182.4125,159.5625 L182.4125,161.7188 L179.9438,161.7188 L179.9438,169.7969 L182.4125,169.7969 L182.4125,171.9531 L175.0219,171.9531 L175.0219,169.7969 L177.4906,169.7969 L177.4906,161.7188 L175.0219,161.7188 Z "/><text fill="#000000" font-family="sans-serif" font-size="12" font-style="italic" lengthAdjust="spacingAndGlyphs" textLength="125" x="195.9" y="170.1074">ConnectableFactory</text><line style="stroke: #A80036; stroke-width: 1.5;" x1="152.5" x2="335.5" y1="181.9531" y2="181.9531"/><line style="stroke: #A80036; stroke-width: 1.5;" x1="152.5" x2="335.5" y1="189.9531" y2="189.9531"/><ellipse cx="162.5" cy="200.9531" fill="#84BE84" rx="3" ry="3" style="stroke: #038048; stroke-width: 1.0;"/><text fill="#000000" font-family="sans-serif" font-size="11" lengthAdjust="spacingAndGlyphs" textLength="126" x="171.5" y="204.1636">create() : Connectable</text><ellipse cx="162.5" cy="213.7578" fill="#84BE84" rx="3" ry="3" style="stroke: #038048; stroke-width: 1.0;"/><text fill="#000000" font-family="sans-serif" font-size="11" lengthAdjust="spacingAndGlyphs" text-decoration="underline" textLength="159" x="171.5" y="216.9683">create(string) : Connectable</text><!--MD5=[243daede478f7d9d70ad16e323fe3cca]
class Cafetiere--><rect fill="#FEFECE" filter="url(#f1rau8hl57l5rp)" height="60.8047" id="Cafetiere" style="stroke: #A80036; stroke-width: 1.5;" width="110" x="6" y="156.4531"/><ellipse cx="30.45" cy="172.4531" fill="#ADD1B2" rx="11" ry="11" style="stroke: #A80036; stroke-width: 1.0;"/><path d="M33.4188,178.0938 Q32.8406,178.3906 32.2,178.5391 Q31.5594,178.6875 30.8563,178.6875 Q28.3563,178.6875 27.0359,177.0391 Q25.7156,175.3906 25.7156,172.2656 Q25.7156,169.1406 27.0359,167.4844 Q28.3563,165.8281 30.8563,165.8281 Q31.5594,165.8281 32.2078,165.9844 Q32.8563,166.1406 33.4188,166.4375 L33.4188,169.1563 Q32.7938,168.5781 32.2,168.3047 Q31.6063,168.0313 30.9813,168.0313 Q29.6375,168.0313 28.95,169.1016 Q28.2625,170.1719 28.2625,172.2656 Q28.2625,174.3594 28.95,175.4297 Q29.6375,176.5 30.9813,176.5 Q31.6063,176.5 32.2,176.2266 Q32.7938,175.9531 33.4188,175.375 L33.4188,178.0938 Z "/><text fill="#000000" font-family="sans-serif" font-size="12" lengthAdjust="spacingAndGlyphs" textLength="57" x="46.55" y="176.6074">Cafetiere</text><line style="stroke: #A80036; stroke-width: 1.5;" x1="7" x2="115" y1="188.4531" y2="188.4531"/><line style="stroke: #A80036; stroke-width: 1.5;" x1="7" x2="115" y1="196.4531" y2="196.4531"/><ellipse cx="17" cy="207.4531" fill="#84BE84" rx="3" ry="3" style="stroke: #038048; stroke-width: 1.0;"/><text fill="#000000" font-family="sans-serif" font-size="11" lengthAdjust="spacingAndGlyphs" textLength="84" x="26" y="210.6636">equiper(string)</text><!--MD5=[544998c0c6fc2bf1c6762c5d50f2b2bb]
class Radio--><rect fill="#FEFECE" filter="url(#f1rau8hl57l5rp)" height="60.8047" id="Radio" style="stroke: #A80036; stroke-width: 1.5;" width="110" x="372" y="156.4531"/><ellipse cx="406.35" cy="172.4531" fill="#ADD1B2" rx="11" ry="11" style="stroke: #A80036; stroke-width: 1.0;"/><path d="M409.3188,178.0938 Q408.7406,178.3906 408.1,178.5391 Q407.4594,178.6875 406.7563,178.6875 Q404.2563,178.6875 402.9359,177.0391 Q401.6156,175.3906 401.6156,172.2656 Q401.6156,169.1406 402.9359,167.4844 Q404.2563,165.8281 406.7563,165.8281 Q407.4594,165.8281 408.1078,165.9844 Q408.7563,166.1406 409.3188,166.4375 L409.3188,169.1563 Q408.6938,168.5781 408.1,168.3047 Q407.5063,168.0313 406.8813,168.0313 Q405.5375,168.0313 404.85,169.1016 Q404.1625,170.1719 404.1625,172.2656 Q404.1625,174.3594 404.85,175.4297 Q405.5375,176.5 406.8813,176.5 Q407.5063,176.5 408.1,176.2266 Q408.6938,175.9531 409.3188,175.375 L409.3188,178.0938 Z "/><text fill="#000000" font-family="sans-serif" font-size="12" lengthAdjust="spacingAndGlyphs" textLength="35" x="424.65" y="176.6074">Radio</text><line style="stroke: #A80036; stroke-width: 1.5;" x1="373" x2="481" y1="188.4531" y2="188.4531"/><line style="stroke: #A80036; stroke-width: 1.5;" x1="373" x2="481" y1="196.4531" y2="196.4531"/><ellipse cx="383" cy="207.4531" fill="#84BE84" rx="3" ry="3" style="stroke: #038048; stroke-width: 1.0;"/><text fill="#000000" font-family="sans-serif" font-size="11" lengthAdjust="spacingAndGlyphs" textLength="84" x="392" y="210.6636">equiper(string)</text><!--MD5=[2cf44a12b0afbe3acf2cc7563e4ab2f2]
class Radiateur--><rect fill="#FEFECE" filter="url(#f1rau8hl57l5rp)" height="60.8047" id="Radiateur" style="stroke: #A80036; stroke-width: 1.5;" width="110" x="517" y="156.4531"/><ellipse cx="539.65" cy="172.4531" fill="#ADD1B2" rx="11" ry="11" style="stroke: #A80036; stroke-width: 1.0;"/><path d="M542.6188,178.0938 Q542.0406,178.3906 541.4,178.5391 Q540.7594,178.6875 540.0563,178.6875 Q537.5563,178.6875 536.2359,177.0391 Q534.9156,175.3906 534.9156,172.2656 Q534.9156,169.1406 536.2359,167.4844 Q537.5563,165.8281 540.0563,165.8281 Q540.7594,165.8281 541.4078,165.9844 Q542.0563,166.1406 542.6188,166.4375 L542.6188,169.1563 Q541.9938,168.5781 541.4,168.3047 Q540.8063,168.0313 540.1813,168.0313 Q538.8375,168.0313 538.15,169.1016 Q537.4625,170.1719 537.4625,172.2656 Q537.4625,174.3594 538.15,175.4297 Q538.8375,176.5 540.1813,176.5 Q540.8063,176.5 541.4,176.2266 Q541.9938,175.9531 542.6188,175.375 L542.6188,178.0938 Z "/><text fill="#000000" font-family="sans-serif" font-size="12" lengthAdjust="spacingAndGlyphs" textLength="61" x="555.35" y="176.6074">Radiateur</text><line style="stroke: #A80036; stroke-width: 1.5;" x1="518" x2="626" y1="188.4531" y2="188.4531"/><line style="stroke: #A80036; stroke-width: 1.5;" x1="518" x2="626" y1="196.4531" y2="196.4531"/><ellipse cx="528" cy="207.4531" fill="#84BE84" rx="3" ry="3" style="stroke: #038048; stroke-width: 1.0;"/><text fill="#000000" font-family="sans-serif" font-size="11" lengthAdjust="spacingAndGlyphs" textLength="84" x="537" y="210.6636">equiper(string)</text><!--MD5=[f623df17132b94e321f3bb50d1b4ec4f]
class CafetiereFactory--><rect fill="#FEFECE" filter="url(#f1rau8hl57l5rp)" height="60.8047" id="CafetiereFactory" style="stroke: #A80036; stroke-width: 1.5;" width="152" x="53" y="28.9531"/><ellipse cx="75.65" cy="44.9531" fill="#ADD1B2" rx="11" ry="11" style="stroke: #A80036; stroke-width: 1.0;"/><path d="M78.6188,50.5938 Q78.0406,50.8906 77.4,51.0391 Q76.7594,51.1875 76.0563,51.1875 Q73.5563,51.1875 72.2359,49.5391 Q70.9156,47.8906 70.9156,44.7656 Q70.9156,41.6406 72.2359,39.9844 Q73.5563,38.3281 76.0563,38.3281 Q76.7594,38.3281 77.4078,38.4844 Q78.0563,38.6406 78.6188,38.9375 L78.6188,41.6563 Q77.9938,41.0781 77.4,40.8047 Q76.8063,40.5313 76.1813,40.5313 Q74.8375,40.5313 74.15,41.6016 Q73.4625,42.6719 73.4625,44.7656 Q73.4625,46.8594 74.15,47.9297 Q74.8375,49 76.1813,49 Q76.8063,49 77.4,48.7266 Q77.9938,48.4531 78.6188,47.875 L78.6188,50.5938 Z "/><text fill="#000000" font-family="sans-serif" font-size="12" lengthAdjust="spacingAndGlyphs" textLength="103" x="91.35" y="49.1074">CafetiereFactory</text><line style="stroke: #A80036; stroke-width: 1.5;" x1="54" x2="204" y1="60.9531" y2="60.9531"/><line style="stroke: #A80036; stroke-width: 1.5;" x1="54" x2="204" y1="68.9531" y2="68.9531"/><ellipse cx="64" cy="79.9531" fill="#84BE84" rx="3" ry="3" style="stroke: #038048; stroke-width: 1.0;"/><text fill="#000000" font-family="sans-serif" font-size="11" lengthAdjust="spacingAndGlyphs" textLength="126" x="73" y="83.1636">create() : Connectable</text><!--MD5=[7a3b122caf0dbcd95f82b7a4c632b76a]
class RadioFactory--><rect fill="#FEFECE" filter="url(#f1rau8hl57l5rp)" height="60.8047" id="RadioFactory" style="stroke: #A80036; stroke-width: 1.5;" width="152" x="274" y="28.9531"/><ellipse cx="306.55" cy="44.9531" fill="#ADD1B2" rx="11" ry="11" style="stroke: #A80036; stroke-width: 1.0;"/><path d="M309.5188,50.5938 Q308.9406,50.8906 308.3,51.0391 Q307.6594,51.1875 306.9563,51.1875 Q304.4563,51.1875 303.1359,49.5391 Q301.8156,47.8906 301.8156,44.7656 Q301.8156,41.6406 303.1359,39.9844 Q304.4563,38.3281 306.9563,38.3281 Q307.6594,38.3281 308.3078,38.4844 Q308.9563,38.6406 309.5188,38.9375 L309.5188,41.6563 Q308.8938,41.0781 308.3,40.8047 Q307.7063,40.5313 307.0813,40.5313 Q305.7375,40.5313 305.05,41.6016 Q304.3625,42.6719 304.3625,44.7656 Q304.3625,46.8594 305.05,47.9297 Q305.7375,49 307.0813,49 Q307.7063,49 308.3,48.7266 Q308.8938,48.4531 309.5188,47.875 L309.5188,50.5938 Z "/><text fill="#000000" font-family="sans-serif" font-size="12" lengthAdjust="spacingAndGlyphs" textLength="81" x="324.45" y="49.1074">RadioFactory</text><line style="stroke: #A80036; stroke-width: 1.5;" x1="275" x2="425" y1="60.9531" y2="60.9531"/><line style="stroke: #A80036; stroke-width: 1.5;" x1="275" x2="425" y1="68.9531" y2="68.9531"/><ellipse cx="285" cy="79.9531" fill="#84BE84" rx="3" ry="3" style="stroke: #038048; stroke-width: 1.0;"/><text fill="#000000" font-family="sans-serif" font-size="11" lengthAdjust="spacingAndGlyphs" textLength="126" x="294" y="83.1636">create() : Connectable</text><!--MD5=[16e3afdbf53f21db8d14fe9df5e64e17]
class RadiateurFactory--><rect fill="#FEFECE" filter="url(#f1rau8hl57l5rp)" height="60.8047" id="RadiateurFactory" style="stroke: #A80036; stroke-width: 1.5;" width="152" x="478" y="28.9531"/><ellipse cx="498.85" cy="44.9531" fill="#ADD1B2" rx="11" ry="11" style="stroke: #A80036; stroke-width: 1.0;"/><path d="M501.8188,50.5938 Q501.2406,50.8906 500.6,51.0391 Q499.9594,51.1875 499.2563,51.1875 Q496.7563,51.1875 495.4359,49.5391 Q494.1156,47.8906 494.1156,44.7656 Q494.1156,41.6406 495.4359,39.9844 Q496.7563,38.3281 499.2563,38.3281 Q499.9594,38.3281 500.6078,38.4844 Q501.2563,38.6406 501.8188,38.9375 L501.8188,41.6563 Q501.1938,41.0781 500.6,40.8047 Q500.0063,40.5313 499.3813,40.5313 Q498.0375,40.5313 497.35,41.6016 Q496.6625,42.6719 496.6625,44.7656 Q496.6625,46.8594 497.35,47.9297 Q498.0375,49 499.3813,49 Q500.0063,49 500.6,48.7266 Q501.1938,48.4531 501.8188,47.875 L501.8188,50.5938 Z "/><text fill="#000000" font-family="sans-serif" font-size="12" lengthAdjust="spacingAndGlyphs" textLength="107" x="514.15" y="49.1074">RadiateurFactory</text><line style="stroke: #A80036; stroke-width: 1.5;" x1="479" x2="629" y1="60.9531" y2="60.9531"/><line style="stroke: #A80036; stroke-width: 1.5;" x1="479" x2="629" y1="68.9531" y2="68.9531"/><ellipse cx="489" cy="79.9531" fill="#84BE84" rx="3" ry="3" style="stroke: #038048; stroke-width: 1.0;"/><text fill="#000000" font-family="sans-serif" font-size="11" lengthAdjust="spacingAndGlyphs" textLength="126" x="498" y="83.1636">create() : Connectable</text><!--MD5=[e42bf510181d14efcd4e35ee8321c758]
link ConnectableFactory to Connectable--><path d="M270.5656,224.1741 C283.0431,241.6563 297.8327,262.378 310.0937,279.5569 " fill="none" id="ConnectableFactory-&gt;Connectable" style="stroke: #A80036; stroke-width: 1.0; stroke-dasharray: 7.0,7.0;"/><polygon fill="#A80036" points="313.1535,283.844,311.1808,274.1948,310.2488,279.7743,304.6692,278.8423,313.1535,283.844" style="stroke: #A80036; stroke-width: 1.0;"/><!--MD5=[17d1ee41152dede184e6456223852a24]
link Cafetiere to Connectable--><path d="M116.2705,215.3033 C122.2359,218.2625 128.2318,221.1945 134,223.9531 C175.6442,243.8689 222.6683,265.1087 260.7573,282.0033 " fill="none" id="Cafetiere-&gt;Connectable" style="stroke: #A80036; stroke-width: 1.0; stroke-dasharray: 7.0,7.0;"/><polygon fill="none" points="263.7651,275.6794,279.2284,290.1669,258.1057,288.4845,263.7651,275.6794" style="stroke: #A80036; stroke-width: 1.0;"/><!--MD5=[8b6b0d0a2bfa80ff377704192a5eb266]
link Radio to Connectable--><path d="M404.9637,217.4925 C394.1758,232.4432 380.9482,250.7749 368.9097,267.4586 " fill="none" id="Radio-&gt;Connectable" style="stroke: #A80036; stroke-width: 1.0; stroke-dasharray: 7.0,7.0;"/><polygon fill="none" points="374.5547,271.5983,357.1753,283.721,363.2017,263.4063,374.5547,271.5983" style="stroke: #A80036; stroke-width: 1.0;"/><!--MD5=[a0593fe9676f76fe92d116b72ee11685]
link Radiateur to Connectable--><path d="M516.7331,216.6853 C484.469,234.0426 443.3603,256.158 408.4047,274.9632 " fill="none" id="Radiateur-&gt;Connectable" style="stroke: #A80036; stroke-width: 1.0; stroke-dasharray: 7.0,7.0;"/><polygon fill="none" points="411.6949,281.1418,390.7655,284.4527,405.0621,268.8127,411.6949,281.1418" style="stroke: #A80036; stroke-width: 1.0;"/><!--MD5=[68ac3e15ef1f50f2e60e604d17772a1d]
link CafetiereFactory to ConnectableFactory--><path d="M156.5454,89.9925 C168.5788,103.334 183.0406,119.3677 196.7076,134.5202 " fill="none" id="CafetiereFactory-&gt;ConnectableFactory" style="stroke: #A80036; stroke-width: 1.0; stroke-dasharray: 7.0,7.0;"/><polygon fill="none" points="202.3298,130.3021,210.5272,149.8419,191.9338,139.6789,202.3298,130.3021" style="stroke: #A80036; stroke-width: 1.0;"/><!--MD5=[9393cb13dea9a40db96693d431ba4041]
link CafetiereFactory to Cafetiere--><path d="M112.7123,89.9925 C102.86,108.4656 90.2547,132.1006 79.956,151.4106 " fill="none" id="CafetiereFactory-&gt;Cafetiere" style="stroke: #A80036; stroke-width: 1.0; stroke-dasharray: 7.0,7.0;"/><polygon fill="#A80036" points="77.3905,156.221,85.1552,150.1622,79.7434,151.8093,78.0964,146.3975,77.3905,156.221" style="stroke: #A80036; stroke-width: 1.0;"/><!--MD5=[8bc5b9d41cb3831990e3ef233ed68d52]
link RadioFactory to ConnectableFactory--><path d="M324.6104,89.9925 C313.6354,103.1935 300.469,119.0305 287.9893,134.0414 " fill="none" id="RadioFactory-&gt;ConnectableFactory" style="stroke: #A80036; stroke-width: 1.0; stroke-dasharray: 7.0,7.0;"/><polygon fill="none" points="293.0219,138.9378,274.8532,149.8419,282.2564,129.9876,293.0219,138.9378" style="stroke: #A80036; stroke-width: 1.0;"/><!--MD5=[24e2772036d6b090dc8ca1bf9ea116d7]
link RadioFactory to Radio--><path d="M368.4434,89.9925 C379.6943,108.6222 394.1155,132.5015 405.831,151.9006 " fill="none" id="RadioFactory-&gt;Radio" style="stroke: #A80036; stroke-width: 1.0; stroke-dasharray: 7.0,7.0;"/><polygon fill="#A80036" points="408.4402,156.221,407.2116,146.4491,405.8554,151.941,400.3635,150.5848,408.4402,156.221" style="stroke: #A80036; stroke-width: 1.0;"/><!--MD5=[d3b0126adac1de5ba9ae52fbddabfaef]
link RadiateurFactory to ConnectableFactory--><path d="M479.7473,89.9925 C441.7607,105.616 394.797,124.9317 352.8099,142.2006 " fill="none" id="RadiateurFactory-&gt;ConnectableFactory" style="stroke: #A80036; stroke-width: 1.0; stroke-dasharray: 7.0,7.0;"/><polygon fill="none" points="355.3903,148.7082,334.231,149.8419,350.065,135.7606,355.3903,148.7082" style="stroke: #A80036; stroke-width: 1.0;"/><!--MD5=[74ca5cf1cf08c7efee6714823300029d]
link RadiateurFactory to Radiateur--><path d="M558.3114,89.9925 C560.8973,108.3091 564.1996,131.7004 566.9128,150.9187 " fill="none" id="RadiateurFactory-&gt;Radiateur" style="stroke: #A80036; stroke-width: 1.0; stroke-dasharray: 7.0,7.0;"/><polygon fill="#A80036" points="567.6613,156.221,570.3638,146.7502,566.9623,151.2701,562.4424,147.8686,567.6613,156.221" style="stroke: #A80036; stroke-width: 1.0;"/><!--MD5=[d2a79ebfff313ec48dd0f2412dbeba27]
@startuml
title TD2 - Exercice 2 - Question 1

interface Connectable {
  +equiper(string)
}
ConnectableFactory ..> Connectable

class Cafetiere{
  +equiper(string)
}
Cafetiere ..|> Connectable

class Radio{
  +equiper(string)
}
Radio ..|> Connectable

class Radiateur{
  +equiper(string)
}
Radiateur ..|> Connectable

interface ConnectableFactory{
  
  +create() : Connectable
  +{static}create(string) : Connectable
}

class CafetiereFactory{
  +create() : Connectable 
}
CafetiereFactory ..|> ConnectableFactory
CafetiereFactory ..> Cafetiere

class RadioFactory{
  +create() : Connectable 
}
RadioFactory ..|> ConnectableFactory
RadioFactory ..> Radio

class RadiateurFactory{
  +create() : Connectable 
}
RadiateurFactory ..|> ConnectableFactory
RadiateurFactory ..> Radiateur
@enduml

PlantUML version 1.2019.12(Sun Nov 03 10:24:54 UTC 2019)
(GPL source distribution)
Java Runtime: OpenJDK Runtime Environment
JVM: OpenJDK 64-Bit Server VM
Java Version: 1.8.0_232-heroku-b09
Operating System: Linux
Default Encoding: UTF-8
Language: en
Country: US
--></g></svg>